<svg width="300" height="300" viewBox="0 0 300 300" fill="none" xmlns="http://www.w3.org/2000/svg">
<rect width="300" height="300" fill="#00371D"/>
<path d="M64.048 125.703C100.828 125.703 126.292 131.362 151.755 159.654C151.755 159.654 163.072 143.728 191.365 132.776C219.658 121.824 239.463 125.703 239.463 125.703" stroke="#CCEE24" stroke-width="8.32047"/>
<path d="M134.369 172.528C101.147 143.876 62.0744 148.961 62.0744 148.961C62.0744 148.961 57.5114 189.45 82.7627 219.798C116.591 260.455 164.853 252.536 164.853 252.536C164.853 252.536 172.989 205.835 134.369 172.528Z" stroke="#CCEE24" stroke-width="8.32047"/>
<path d="M96.5802 84.0011L152.822 41L207.478 84.0011" stroke="#CCEE24" stroke-width="8.32047"/>
<path d="M214.082 95.3258C214.082 97.541 212.988 100.06 210.143 102.78C207.286 105.511 202.932 108.161 197.209 110.474C185.785 115.093 169.716 118.044 151.754 118.044C133.792 118.044 117.724 115.093 106.299 110.474C100.576 108.161 96.2222 105.511 93.3658 102.78C90.5198 100.06 89.4266 97.541 89.4266 95.3258C89.4266 93.1106 90.5198 90.5912 93.3658 87.8711C96.2222 85.1411 100.576 82.4907 106.299 80.1771C117.724 75.5588 133.792 72.608 151.754 72.608C169.716 72.608 185.785 75.5588 197.209 80.1771C202.932 82.4907 207.286 85.1411 210.143 87.8711C212.988 90.5912 214.082 93.1106 214.082 95.3258Z" stroke="#CCEE24" stroke-width="8.32047"/>
<path d="M84.9091 173.153L163.083 251.327" stroke="#CCEE24" stroke-width="4.84493"/>
<path d="M100.71 214.008L125.762 214.009L123.995 189.788" stroke="#CCEE24" stroke-width="4.84493"/>
<circle cx="81.9572" cy="168.537" r="4.96887" transform="rotate(-45 81.9572 168.537)" stroke="#CCEE24" stroke-width="4.39098"/>
<circle cx="124.217" cy="184.187" r="4.42967" transform="rotate(-45 124.217 184.187)" stroke="#CCEE24" stroke-width="4.39098"/>
<circle cx="95.9425" cy="212.462" r="4.42967" transform="rotate(-45 95.9425 212.462)" stroke="#CCEE24" stroke-width="4.39098"/>
<path d="M115.68 228.978L140.732 228.978L138.965 204.758" stroke="#CCEE24" stroke-width="4.84493"/>
<circle cx="139.186" cy="199.155" r="4.42967" transform="rotate(-45 139.186 199.155)" stroke="#CCEE24" stroke-width="4.39098"/>
<circle cx="110.91" cy="227.43" r="4.42967" transform="rotate(-45 110.91 227.43)" stroke="#CCEE24" stroke-width="4.39098"/>
<path d="M88.2356 197.322L109.13 197.32L108.195 178.923" stroke="#CCEE24" stroke-width="4.84493"/>
<circle cx="107.585" cy="172.544" r="4.42967" transform="rotate(-45 107.585 172.544)" stroke="#CCEE24" stroke-width="4.39098"/>
<circle cx="82.6347" cy="195.831" r="4.42967" transform="rotate(-45 82.6347 195.831)" stroke="#CCEE24" stroke-width="4.39098"/>
<path d="M190.524 183.136L177.218 199.768L183.039 225.549L204.662 204.758L216.305 181.472L217.968 153.197L193.019 158.186L190.524 183.136Z" stroke="#CCEE24" stroke-width="2.20476"/>
<path d="M212.147 196.442L183.04 224.718L184.703 248.835L212.147 229.708L235.433 196.442C237.928 179.809 240.423 171.493 237.928 153.197H219.632L212.147 196.442Z" stroke="#CCEE24" stroke-width="2.20476"/>
<path d="M191.357 158.187L163.081 176.483L176.387 200.6C184.801 192.039 187.98 186.26 192.188 174.82L191.357 158.187Z" stroke="#CCEE24" stroke-width="2.20476"/>
<path d="M198.447 155.854C213.639 150.605 239.471 151.61 239.471 151.61C239.471 151.61 243.715 182.732 228.154 209.61C216.105 230.422 182.886 249.219 182.886 249.219C182.886 249.219 185.715 232.244 180.057 212.439C174.398 192.634 163.081 177.073 163.081 177.073C163.081 177.073 183.255 161.102 198.447 155.854Z" stroke="#CCEE24" stroke-width="8.32047"/>
<path d="M218.252 153.025C218.252 191.22 208.349 206.781 182.886 225.171" stroke="#CCEE24" stroke-width="6.61427"/>
<path d="M192.788 160.096C195.617 177.071 187.381 192.638 176.064 199.711" stroke="#CCEE24" stroke-width="6.61427"/>
</svg>
