<svg width="124" height="37" viewBox="0 0 124 37" fill="none" xmlns="http://www.w3.org/2000/svg">
<path d="M41.1992 26.0007V12.0007H45.8292C46.7959 12.0007 47.7026 12.1841 48.5492 12.5507C49.3959 12.9107 50.1392 13.4141 50.7792 14.0607C51.4192 14.7007 51.9192 15.4441 52.2792 16.2907C52.6459 17.1307 52.8292 18.0341 52.8292 19.0007C52.8292 19.9674 52.6459 20.8741 52.2792 21.7207C51.9192 22.5607 51.4192 23.3041 50.7792 23.9507C50.1392 24.5907 49.3959 25.0941 48.5492 25.4607C47.7026 25.8207 46.7959 26.0007 45.8292 26.0007H41.1992ZM43.2792 23.9207H45.8292C46.5092 23.9207 47.1426 23.7941 47.7292 23.5407C48.3226 23.2874 48.8459 22.9341 49.2992 22.4807C49.7592 22.0274 50.1159 21.5041 50.3692 20.9107C50.6226 20.3174 50.7492 19.6807 50.7492 19.0007C50.7492 18.3207 50.6226 17.6841 50.3692 17.0907C50.1159 16.4974 49.7592 15.9741 49.2992 15.5207C48.8459 15.0674 48.3226 14.7141 47.7292 14.4607C47.1426 14.2074 46.5092 14.0807 45.8292 14.0807H43.2792V23.9207ZM62.1628 16.0007H64.2428V26.0007H62.1528L62.0728 24.5507C61.7795 25.0641 61.3828 25.4774 60.8828 25.7907C60.3828 26.1041 59.7928 26.2607 59.1128 26.2607C58.3795 26.2607 57.6895 26.1241 57.0428 25.8507C56.3962 25.5707 55.8262 25.1841 55.3328 24.6907C54.8462 24.1974 54.4662 23.6307 54.1928 22.9907C53.9195 22.3441 53.7828 21.6507 53.7828 20.9107C53.7828 20.1974 53.9162 19.5274 54.1828 18.9007C54.4495 18.2674 54.8195 17.7141 55.2928 17.2407C55.7662 16.7674 56.3128 16.3974 56.9328 16.1307C57.5595 15.8574 58.2295 15.7207 58.9428 15.7207C59.6695 15.7207 60.3095 15.8874 60.8628 16.2207C61.4228 16.5474 61.8862 16.9674 62.2528 17.4807L62.1628 16.0007ZM59.0628 24.2507C59.6495 24.2507 60.1628 24.1074 60.6028 23.8207C61.0428 23.5274 61.3828 23.1341 61.6228 22.6407C61.8695 22.1474 61.9928 21.6007 61.9928 21.0007C61.9928 20.3941 61.8695 19.8441 61.6228 19.3507C61.3762 18.8574 61.0328 18.4674 60.5928 18.1807C60.1595 17.8874 59.6495 17.7407 59.0628 17.7407C58.4828 17.7407 57.9528 17.8874 57.4728 18.1807C56.9928 18.4741 56.6128 18.8674 56.3328 19.3607C56.0528 19.8541 55.9128 20.4007 55.9128 21.0007C55.9128 21.6074 56.0562 22.1574 56.3428 22.6507C56.6362 23.1374 57.0195 23.5274 57.4928 23.8207C57.9728 24.1074 58.4962 24.2507 59.0628 24.2507ZM72.6586 16.0007H74.8786L69.3986 31.0007H67.1886L68.9986 26.0007L65.4086 16.0007H67.6786L70.0386 23.1507L72.6586 16.0007ZM83.8035 16.0007H85.8835V26.0007H83.7935L83.7135 24.5507C83.4201 25.0641 83.0235 25.4774 82.5235 25.7907C82.0235 26.1041 81.4335 26.2607 80.7535 26.2607C80.0201 26.2607 79.3301 26.1241 78.6835 25.8507C78.0368 25.5707 77.4668 25.1841 76.9735 24.6907C76.4868 24.1974 76.1068 23.6307 75.8335 22.9907C75.5601 22.3441 75.4235 21.6507 75.4235 20.9107C75.4235 20.1974 75.5568 19.5274 75.8235 18.9007C76.0901 18.2674 76.4601 17.7141 76.9335 17.2407C77.4068 16.7674 77.9535 16.3974 78.5735 16.1307C79.2001 15.8574 79.8701 15.7207 80.5835 15.7207C81.3101 15.7207 81.9501 15.8874 82.5035 16.2207C83.0635 16.5474 83.5268 16.9674 83.8935 17.4807L83.8035 16.0007ZM80.7035 24.2507C81.2901 24.2507 81.8035 24.1074 82.2435 23.8207C82.6835 23.5274 83.0235 23.1341 83.2635 22.6407C83.5101 22.1474 83.6335 21.6007 83.6335 21.0007C83.6335 20.3941 83.5101 19.8441 83.2635 19.3507C83.0168 18.8574 82.6735 18.4674 82.2335 18.1807C81.8001 17.8874 81.2901 17.7407 80.7035 17.7407C80.1235 17.7407 79.5935 17.8874 79.1135 18.1807C78.6335 18.4741 78.2535 18.8674 77.9735 19.3607C77.6935 19.8541 77.5535 20.4007 77.5535 21.0007C77.5535 21.6074 77.6968 22.1574 77.9835 22.6507C78.2768 23.1374 78.6601 23.5274 79.1335 23.8207C79.6135 24.1074 80.1368 24.2507 80.7035 24.2507ZM97.1408 12.0007V14.0807H92.6808V26.0007H90.6008V14.0807H86.1508V12.0007H97.1408ZM105.405 16.0007H107.485V26.0007H105.395L105.315 24.5507C105.022 25.0641 104.625 25.4774 104.125 25.7907C103.625 26.1041 103.035 26.2607 102.355 26.2607C101.622 26.2607 100.932 26.1241 100.285 25.8507C99.6384 25.5707 99.0684 25.1841 98.575 24.6907C98.0884 24.1974 97.7084 23.6307 97.435 22.9907C97.1617 22.3441 97.025 21.6507 97.025 20.9107C97.025 20.1974 97.1584 19.5274 97.425 18.9007C97.6917 18.2674 98.0617 17.7141 98.535 17.2407C99.0084 16.7674 99.555 16.3974 100.175 16.1307C100.802 15.8574 101.472 15.7207 102.185 15.7207C102.912 15.7207 103.552 15.8874 104.105 16.2207C104.665 16.5474 105.128 16.9674 105.495 17.4807L105.405 16.0007ZM102.305 24.2507C102.892 24.2507 103.405 24.1074 103.845 23.8207C104.285 23.5274 104.625 23.1341 104.865 22.6407C105.112 22.1474 105.235 21.6007 105.235 21.0007C105.235 20.3941 105.112 19.8441 104.865 19.3507C104.618 18.8574 104.275 18.4674 103.835 18.1807C103.402 17.8874 102.892 17.7407 102.305 17.7407C101.725 17.7407 101.195 17.8874 100.715 18.1807C100.235 18.4741 99.855 18.8674 99.575 19.3607C99.295 19.8541 99.155 20.4007 99.155 21.0007C99.155 21.6074 99.2984 22.1574 99.585 22.6507C99.8784 23.1374 100.262 23.5274 100.735 23.8207C101.215 24.1074 101.738 24.2507 102.305 24.2507ZM118.48 19.7307V26.0007H116.4V20.2407C116.4 19.7941 116.29 19.3874 116.07 19.0207C115.857 18.6541 115.567 18.3641 115.2 18.1507C114.84 17.9307 114.434 17.8207 113.98 17.8207C113.54 17.8207 113.137 17.9307 112.77 18.1507C112.404 18.3641 112.11 18.6541 111.89 19.0207C111.67 19.3874 111.56 19.7941 111.56 20.2407V26.0007H109.48V16.0007H111.56V17.0607C111.907 16.6474 112.334 16.3207 112.84 16.0807C113.347 15.8407 113.894 15.7207 114.48 15.7207C115.22 15.7207 115.894 15.9007 116.5 16.2607C117.107 16.6207 117.587 17.1041 117.94 17.7107C118.3 18.3174 118.48 18.9907 118.48 19.7307ZM120.477 16.0007H122.557V26.0007H120.477V16.0007ZM121.537 14.5507C121.217 14.5507 120.95 14.4474 120.737 14.2407C120.523 14.0341 120.417 13.7741 120.417 13.4607C120.417 13.1541 120.523 12.8974 120.737 12.6907C120.95 12.4774 121.213 12.3707 121.527 12.3707C121.833 12.3707 122.093 12.4774 122.307 12.6907C122.52 12.8974 122.627 13.1541 122.627 13.4607C122.627 13.7741 122.52 14.0341 122.307 14.2407C122.1 14.4474 121.843 14.5507 121.537 14.5507Z" fill="#00371D"/>
<path fill-rule="evenodd" clip-rule="evenodd" d="M15.5555 0L16.0415 0.376883L25.647 7.82463L25.485 8.03351C26.0444 8.56263 26.3541 9.14519 26.3541 9.75699C26.3541 12.181 21.4932 14.146 15.497 14.146C9.50077 14.146 4.63987 12.181 4.63987 9.75699C4.63987 9.05201 5.05103 8.38585 5.78169 7.79556L5.62155 7.58585L15.0666 0.373291L15.5555 0ZM10.5226 5.85468C12.0129 5.54361 13.7042 5.36795 15.497 5.36795C17.3041 5.36795 19.0081 5.54643 20.507 5.86216L15.548 2.01714L10.5226 5.85468ZM22.2538 16.6175C24.4745 15.7579 26.3521 15.484 27.6624 15.4224C28.3178 15.3915 28.8315 15.4138 29.1751 15.4426C29.3469 15.457 29.4761 15.473 29.5591 15.4847C29.6005 15.4906 29.6305 15.4955 29.6484 15.4985L29.6662 15.5016L29.6663 15.5016C29.666 15.5016 29.6657 15.5015 29.8193 14.7171C29.973 13.9326 29.9726 13.9326 29.9723 13.9325L29.9716 13.9324L29.9699 13.9321L29.9656 13.9312L29.9536 13.929L29.9153 13.9223C29.8836 13.9169 29.8396 13.9099 29.7836 13.9019C29.6717 13.8861 29.5121 13.8666 29.3085 13.8495C28.9014 13.8154 28.3178 13.7911 27.5872 13.8255C26.1255 13.8943 24.076 14.1979 21.6767 15.1267C19.2771 16.0556 17.5848 17.2005 16.4844 18.1254C16.0625 18.4799 15.728 18.8019 15.474 19.0666C13.5154 17.0558 11.5125 15.7789 9.29317 15.0021C6.85717 14.1495 4.21055 13.9178 1.17503 13.9177V15.5164C4.14557 15.5164 6.581 15.7466 8.76505 16.511C10.9321 17.2695 12.9016 18.5721 14.903 20.7959L15.5707 21.5376L16.1469 20.7267L16.147 20.7266L16.147 20.7266L16.1475 20.7258L16.1479 20.7254L16.1577 20.7121C16.1679 20.6986 16.1854 20.6758 16.2103 20.6446C16.2602 20.5821 16.3399 20.4859 16.4513 20.3626C16.6741 20.1159 17.0233 19.7607 17.513 19.3492C18.4916 18.5267 20.0334 17.477 22.2538 16.6175ZM0.0582332 18.4262C0.0582693 18.4258 0.0583027 18.4255 0.8526 18.5151C0.749449 17.7224 0.749795 17.7224 0.750166 17.7223L0.751029 17.7222L0.753197 17.7219L0.759287 17.7212L0.77841 17.7189C0.794217 17.717 0.816107 17.7146 0.843855 17.7117C0.899345 17.706 0.978301 17.6987 1.07891 17.6913C1.28008 17.6766 1.5682 17.6616 1.92875 17.6591C2.64924 17.6541 3.66271 17.6989 4.85177 17.8962C7.22892 18.2907 10.3288 19.2991 13.18 21.7581C16.506 24.6265 17.8194 28.0774 18.299 30.7966C18.5385 32.1544 18.5713 33.3341 18.5438 34.1777C18.5301 34.6 18.5012 34.9396 18.4752 35.177C18.4622 35.2958 18.4499 35.3891 18.4405 35.4546C18.4358 35.4874 18.4318 35.5132 18.4289 35.5318L18.4252 35.5541L18.4241 35.5612L18.4236 35.5637L18.4235 35.5646C18.4234 35.5651 18.4233 35.5654 17.6359 35.4282C17.7653 36.217 17.7649 36.2171 17.7645 36.2172L17.7635 36.2173L17.761 36.2177L17.7537 36.2189L17.7307 36.2224L17.6971 36.2272L17.6513 36.2335C17.5838 36.2425 17.4876 36.2542 17.3652 36.2663C17.1204 36.2905 16.7703 36.3165 16.3351 36.3257C15.4658 36.3442 14.251 36.2959 12.8554 36.0302C10.0601 35.498 6.52464 34.0888 3.61644 30.5936C1.42848 27.964 0.546164 24.9144 0.204395 22.5549C0.0329537 21.3713 -0.00437611 20.3487 0.00130126 19.6193C0.00414303 19.2542 0.0177704 18.9614 0.030978 18.7572C0.037584 18.6551 0.0440915 18.5751 0.0491073 18.5191C0.0516155 18.4911 0.0537516 18.4692 0.0553417 18.4535L0.0572963 18.4347L0.0579261 18.4289L0.0581471 18.4269L0.0582332 18.4262ZM17.6359 35.4282L18.4233 35.5654L18.3258 36.125L17.7653 36.217L17.6359 35.4282ZM0.749449 17.7224L0.8526 18.5151L0.0583027 18.4255L0.128437 17.8032L0.749449 17.7224ZM1.5999 19.6318C1.60095 19.4975 1.60359 19.3747 1.60713 19.2643C1.70773 19.261 1.81888 19.2586 1.93984 19.2577C2.5852 19.2533 3.50588 19.2933 4.59004 19.4733C6.75932 19.8333 9.56216 20.749 12.1359 22.9687C15.1165 25.5392 16.292 28.6208 16.7247 31.0743C16.9413 32.3028 16.9706 33.3695 16.946 34.1257C16.9446 34.1698 16.943 34.2129 16.9412 34.2548L14.0893 31.403L13.8211 27.7264C13.9631 27.6739 14.0962 27.5907 14.2102 27.4767C14.6327 27.0542 14.6327 26.3692 14.2102 25.9467C13.7877 25.5242 13.1027 25.5242 12.6802 25.9467C12.2578 26.3692 12.2578 27.0542 12.6802 27.4767C12.7783 27.5747 12.8904 27.65 13.0102 27.7025L13.2164 30.5301L11.6439 28.9575L11.3757 25.2819C11.5184 25.2294 11.6523 25.1459 11.7669 25.0314C12.1894 24.6089 12.1894 23.9239 11.7669 23.5014C11.3444 23.0789 10.6594 23.0789 10.2369 23.5014C9.8144 23.9239 9.8144 24.6089 10.2369 25.0314C10.3343 25.1288 10.4457 25.2038 10.5647 25.2563L10.771 28.0846L8.93183 26.2455L8.78653 23.3879L8.61484 23.3966C8.77402 23.3458 8.92377 23.2573 9.05007 23.131C9.47256 22.7085 9.47256 22.0235 9.05007 21.601C8.62758 21.1785 7.94258 21.1785 7.52009 21.601C7.0976 22.0235 7.0976 22.7085 7.52009 23.131C7.67426 23.2851 7.86339 23.3831 8.06196 23.4247L7.98049 23.4289L8.08042 25.394L5.06799 22.3816C5.38626 21.9228 5.341 21.2881 4.9322 20.8793C4.47251 20.4197 3.7272 20.4197 3.2675 20.8793C2.80781 21.339 2.80781 22.0844 3.2675 22.544C3.57335 22.8499 4.00563 22.9523 4.3961 22.8511L7.55407 26.0091L5.28097 26.0093C5.24814 25.7877 5.14643 25.5743 4.97585 25.4037C4.55336 24.9813 3.86836 24.9813 3.44587 25.4037C3.02338 25.8262 3.02338 26.5112 3.44587 26.9337C3.86836 27.3562 4.55336 27.3562 4.97585 26.9337C5.03308 26.8765 5.08255 26.8144 5.12428 26.7489L5.12429 26.8164L8.36108 26.8161L10.2791 28.7341L7.45428 28.7341C7.42304 28.5089 7.32085 28.2917 7.14772 28.1186C6.72523 27.6961 6.04024 27.6961 5.61775 28.1186C5.19526 28.5411 5.19526 29.2261 5.61775 29.6486C6.04024 30.071 6.72523 30.071 7.14772 29.6486C7.18189 29.6144 7.2133 29.5785 7.24194 29.5412L11.0862 29.5412L12.7225 31.1775L9.89736 31.1775C9.86581 30.953 9.76371 30.7365 9.59108 30.5639C9.16859 30.1414 8.4836 30.1414 8.06111 30.5639C7.63862 30.9864 7.63862 31.6714 8.06111 32.0939C8.4836 32.5164 9.16859 32.5164 9.59108 32.0939C9.62585 32.0591 9.65775 32.0226 9.68679 31.9845L13.5295 31.9846L16.273 34.728C15.4938 34.7429 14.4044 34.6977 13.1544 34.4597C10.6282 33.9787 7.4612 32.7149 4.84534 29.5711C2.90988 27.2449 2.10306 24.5109 1.78654 22.3257C1.62883 21.2369 1.59473 20.2969 1.5999 19.6318ZM24.7554 9.75699C24.7554 9.78816 24.7465 9.97506 24.3963 10.3097C24.0421 10.6482 23.4448 11.0268 22.575 11.3784C20.8437 12.0783 18.342 12.5474 15.497 12.5474C12.652 12.5474 10.1503 12.0783 8.419 11.3784C7.54917 11.0268 6.95183 10.6482 6.59765 10.3097C6.2475 9.97506 6.23852 9.78816 6.23852 9.75699C6.23852 9.72582 6.2475 9.53893 6.59765 9.20427C6.95183 8.86575 7.54917 8.48723 8.419 8.13559C10.1503 7.43572 12.652 6.9666 15.497 6.9666C18.342 6.9666 20.8437 7.43572 22.575 8.13559C23.4448 8.48723 24.0421 8.86575 24.3963 9.20427C24.7465 9.53893 24.7554 9.72582 24.7554 9.75699ZM3.78472 21.3966C3.61068 21.5706 3.61068 21.8528 3.78472 22.0268C3.95876 22.2009 4.24094 22.2009 4.41498 22.0268C4.58902 21.8528 4.58902 21.5706 4.41498 21.3966C4.24094 21.2225 3.95876 21.2225 3.78472 21.3966ZM11.2496 24.0186C11.3865 24.1555 11.3865 24.3773 11.2496 24.5142C11.1128 24.651 10.8909 24.651 10.7541 24.5142C10.6173 24.3773 10.6173 24.1555 10.7541 24.0186C10.8909 23.8818 11.1128 23.8818 11.2496 24.0186ZM6.6305 29.1313C6.76734 28.9945 6.76734 28.7726 6.6305 28.6358C6.49366 28.499 6.27181 28.499 6.13497 28.6358C5.99813 28.7726 5.99813 28.9945 6.13497 29.1313C6.27181 29.2682 6.49366 29.2682 6.6305 29.1313ZM13.693 26.9595C13.8298 26.8226 13.8298 26.6008 13.693 26.4639C13.5562 26.3271 13.3343 26.3271 13.1975 26.4639C13.0606 26.6008 13.0606 26.8226 13.1975 26.9595C13.3343 27.0963 13.5562 27.0963 13.693 26.9595ZM9.07386 31.0811C9.2107 31.218 9.2107 31.4398 9.07386 31.5767C8.93702 31.7135 8.71517 31.7135 8.57833 31.5767C8.44149 31.4398 8.44149 31.218 8.57833 31.0811C8.71517 30.9443 8.93702 30.9443 9.07386 31.0811ZM8.53285 22.1182C8.66968 22.2551 8.66968 22.4769 8.53285 22.6138C8.39601 22.7506 8.17415 22.7506 8.03731 22.6138C7.90047 22.4769 7.90047 22.2551 8.03731 22.1182C8.17415 21.9814 8.39601 21.9814 8.53285 22.1182ZM4.45863 26.4165C4.59547 26.2797 4.59547 26.0578 4.45863 25.921C4.32179 25.7841 4.09993 25.7841 3.96309 25.921C3.82626 26.0578 3.82626 26.2797 3.96309 26.4165C4.09993 26.5533 4.32179 26.5533 4.45863 26.4165ZM29.8171 18.9469C29.8482 18.1482 29.8481 18.1482 29.848 18.1482L29.8476 18.1482L29.8467 18.1481L29.8437 18.148L29.8331 18.1476L29.7943 18.1464C29.7607 18.1453 29.7121 18.1439 29.6497 18.1424C29.525 18.1395 29.3455 18.1364 29.1229 18.1354C28.6782 18.1333 28.0588 18.1398 27.3592 18.1737C25.9822 18.2404 24.2113 18.4166 22.8571 18.8844C21.5138 19.3485 19.9986 20.2642 18.8555 21.0297C18.2756 21.418 17.7755 21.7785 17.4202 22.0421C17.2424 22.1741 17.1003 22.2821 17.0022 22.3576C16.9531 22.3953 16.9149 22.425 16.8887 22.4454L16.8584 22.4691L16.8503 22.4756L16.848 22.4774L16.8472 22.4779L16.847 22.4781C16.8469 22.4782 16.8468 22.4783 17.343 23.105L16.8468 22.4783L16.2452 22.9546L16.6962 23.5746L16.6963 23.5748L16.6964 23.5749L16.6965 23.5751L16.6966 23.5751L16.6992 23.5787L16.712 23.5967C16.7239 23.6135 16.7423 23.6396 16.7664 23.6746C16.8148 23.7447 16.8865 23.8504 16.976 23.9882C17.1552 24.2638 17.4053 24.6666 17.6838 25.1679C18.2428 26.1742 18.9065 27.5599 19.3465 29.0996C19.7829 30.6273 19.8932 32.0516 19.8932 33.0958C19.8932 33.6167 19.8658 34.0393 19.8389 34.3284C19.8255 34.4728 19.8122 34.5836 19.8026 34.6562L19.7958 34.706L19.7915 34.7358L19.7888 34.7531L19.7886 34.7547L19.7885 34.755L19.7885 34.7553L19.7884 34.7558L19.7884 34.7558L19.5133 36.4064L20.9707 35.5818L20.577 34.8861C20.9707 35.5818 20.9708 35.5817 20.971 35.5816L20.9714 35.5814L20.9725 35.5807L20.9764 35.5785L20.9898 35.5708L21.0393 35.5423C21.0821 35.5175 21.1439 35.4814 21.2228 35.4344C21.3804 35.3406 21.6061 35.2037 21.8824 35.029C22.4344 34.6802 23.1914 34.1787 24.0124 33.5678C25.6301 32.364 27.591 30.6665 28.6609 28.8185C30.0114 26.4857 30.4929 23.9894 30.6428 22.0998C30.7181 21.1512 30.7107 20.3447 30.6842 19.7726C30.6709 19.4862 30.6528 19.2577 30.6377 19.0984C30.6301 19.0188 30.6233 18.9564 30.6183 18.9127L30.612 18.8613L30.6101 18.8464L30.6095 18.8417L30.6093 18.8401L30.6092 18.8394C30.6092 18.8392 30.6091 18.8389 29.8171 18.9469ZM29.8171 18.9469L29.8482 18.1482L30.5185 18.1743L30.6091 18.8389L29.8171 18.9469ZM19.0812 24.3915C18.8344 23.9473 18.6076 23.5736 18.4256 23.2869C18.7614 23.0388 19.2193 22.71 19.745 22.358C20.3585 21.9472 21.046 21.5172 21.7289 21.1475C21.8192 23.0678 20.9936 24.7932 19.8218 25.8439C19.5702 25.3029 19.3159 24.814 19.0812 24.3915ZM20.2784 26.8996C20.5 27.4535 20.7075 28.0442 20.8836 28.6604C20.9971 29.0576 21.0907 29.4479 21.1675 29.8274C22.7196 28.609 23.804 27.4448 24.5346 26.0291C25.332 24.4842 25.7342 22.5885 25.7937 19.9014C24.9233 20.0018 24.0669 20.1578 23.3791 20.3954C23.1892 20.461 22.9927 20.5385 22.792 20.6254C23.0829 23.2076 21.9488 25.5744 20.2784 26.8996ZM25.5137 26.5345C26.429 24.7611 26.8461 22.6449 26.8978 19.8016C27.0802 19.7893 27.2603 19.779 27.4366 19.7704C28.084 19.7391 28.6606 19.7324 29.0816 19.7339C29.0835 19.7702 29.0854 19.8077 29.0872 19.8466C29.1112 20.3644 29.1183 21.1028 29.0492 21.9733C28.9104 23.722 28.4678 25.9613 27.2773 28.0175C26.3797 29.5681 24.6445 31.1047 23.058 32.2853C22.4856 32.7113 21.9447 33.082 21.4894 33.3807C21.491 33.2889 21.4919 33.1939 21.4919 33.0958C21.4919 32.5145 21.461 31.8237 21.3676 31.0623C23.2349 29.6627 24.606 28.2931 25.5137 26.5345Z" fill="#00371D"/>
</svg>
